Coordinates
version=1
nRows=30
nColumns=34
inDegrees=no

Units are S.I. units (second, meters, Newtons, ...)
If the header above contains a line with 'inDegrees', this indicates whether rotational values are in degrees (yes) or radians (no).

endheader
time	pelvis_tilt	pelvis_list	pelvis_rotation	pelvis_tx	pelvis_ty	pelvis_tz	hip_flexion_r	hip_adduction_r	hip_rotation_r	knee_angle_r	ankle_angle_r	subtalar_angle_r	mtp_angle_r	hip_flexion_l	hip_adduction_l	hip_rotation_l	knee_angle_l	ankle_angle_l	subtalar_angle_l	mtp_angle_l	lumbar_extension	lumbar_bending	lumbar_rotation	arm_flex_r	arm_add_r	arm_rot_r	elbow_flex_r	pro_sup_r	arm_flex_l	arm_add_l	arm_rot_l	elbow_flex_l	pro_sup_l
0.94	-0.00661382	0.0822734	-0.0536052	0.952406	0.964741	-0.218269	0.444274	-0.103328	-0.0363749	0.909639	0.0312911	-0.525123	-0.0133343	0.0896633	0.10209	-0.163874	0.27952	0.269303	-0.0215504	-0.0116685	-0.282283	-0.389908	-0.0801093	0.0396259	-0.142796	0.278898	0.628004	1.8851	0.110694	-0.243244	-0.109496	0.539009	1.72789
0.95	-0.00760487	0.0766414	-0.0504642	0.963753	0.965347	-0.220127	0.45438	-0.0968968	-0.0390221	0.860831	0.0387642	-0.517205	-0.0133411	0.0707118	0.100062	-0.160411	0.267059	0.271583	-0.0154182	-0.0116655	-0.28154	-0.374456	-0.08226	0.03896	-0.142946	0.263492	0.623776	1.88401	0.113566	-0.239243	-0.0945099	0.541611	1.72996
0.96	-0.00847309	0.0710608	-0.047314	0.975162	0.96576	-0.221993	0.462203	-0.0905353	-0.0427682	0.808977	0.0466904	-0.503879	-0.013348	0.051426	0.0978882	-0.157754	0.254436	0.274179	-0.00828098	-0.0116626	-0.280546	-0.358671	-0.0842284	0.0384247	-0.143247	0.248119	0.619308	1.88458	0.116083	-0.235247	-0.0801017	0.545017	1.73238
0.97	-0.0090967	0.0656091	-0.0441806	0.986651	0.965977	-0.223862	0.467678	-0.0843093	-0.0476901	0.754559	0.0555238	-0.483695	-0.0133548	0.0315458	0.0957181	-0.155825	0.241445	0.27713	-0.000364972	-0.0116596	-0.279408	-0.34266	-0.0860553	0.0379893	-0.143709	0.23276	0.614693	1.88671	0.118208	-0.231316	-0.0662116	0.549241	1.73504
0.98	-0.00934799	0.060358	-0.0410903	0.998234	0.965999	-0.225733	0.470751	-0.0782671	-0.0538144	0.698064	0.0655271	-0.455626	-0.0133616	0.0108203	0.0937001	-0.154449	0.227913	0.280408	0.00799399	-0.0116567	-0.278244	-0.326524	-0.0877776	0.0376188	-0.144341	0.217414	0.610044	1.89015	0.119917	-0.227518	-0.0526986	0.554266	1.73778
0.99	-0.00911649	0.055366	-0.0380721	1.00992	0.965827	-0.227602	0.471412	-0.072424	-0.0610741	0.639987	0.0767649	-0.41926	-0.0133684	-0.0109524	0.0919573	-0.153414	0.213728	0.283941	0.0164312	-0.0116537	-0.277155	-0.310359	-0.0894209	0.0372759	-0.145146	0.202098	0.605475	1.89453	0.121193	-0.223926	-0.0393536	0.560055	1.74048
1	-0.00833048	0.0506713	-0.0351562	1.02174	0.965467	-0.229463	0.469719	-0.066749	-0.0692708	0.58084	0.0891243	-0.374925	-0.0133753	-0.0338871	0.0905642	-0.152526	0.198861	0.287646	0.0246424	-0.0116508	-0.276205	-0.294246	-0.0909977	0.0369236	-0.146108	0.186828	0.60109	1.8994	0.12203	-0.220622	-0.0259261	0.566545	1.743
1.01	-0.00697462	0.0462871	-0.0323705	1.03367	0.964922	-0.231309	0.465826	-0.061162	-0.0780537	0.521166	0.102351	-0.323741	-0.0133821	-0.0579781	0.0895315	-0.151671	0.183397	0.291457	0.0324581	-0.0116478	-0.275407	-0.278249	-0.0925086	0.0365267	-0.147193	0.17161	0.596971	1.90426	0.122428	-0.217689	-0.012161	0.57366	1.74526
1.02	-0.00509834	0.0422022	-0.0297351	1.04575	0.964195	-0.233128	0.459993	-0.0555427	-0.0869279	0.461556	0.1161	-0.267566	-0.0133889	-0.0830789	0.0888038	-0.150847	0.167538	0.295345	0.0398857	-0.0116449	-0.274715	-0.262418	-0.0939463	0.036053	-0.148344	0.156435	0.593167	1.90867	0.122396	-0.21521	0.0021645	0.581314	1.74727
1.03	-0.00281193	0.0383874	-0.0272585	1.05795	0.963288	-0.234908	0.452587	-0.0497544	-0.0953027	0.402672	0.129986	-0.208839	-0.0133957	-0.108902	0.0882694	-0.150177	0.151614	0.299329	0.0471133	-0.0116419	-0.274034	-0.246788	-0.0953001	0.0354745	-0.149483	0.14127	0.589696	1.91221	0.121957	-0.213259	0.017209	0.589417	1.74909
1.04	-0.000269483	0.0348041	-0.0249348	1.07028	0.962207	-0.236634	0.444061	-0.0436765	-0.10258	0.345271	0.143644	-0.150323	-0.0134026	-0.135043	0.0877807	-0.149891	0.136062	0.303463	0.0544758	-0.011639	-0.273239	-0.231386	-0.0965583	0.034767	-0.150519	0.126055	0.586546	1.91461	0.121149	-0.211887	0.0330491	0.597871	1.75084
1.05	0.00235615	0.0314154	-0.0227456	1.08274	0.960959	-0.238291	0.434926	-0.0372375	-0.108269	0.290223	0.156778	-0.094788	-0.0134094	-0.16102	0.0871786	-0.15029	0.121403	0.307821	0.062393	-0.011636	-0.272204	-0.216236	-0.0977084	0.0339113	-0.151361	0.1107	0.583679	1.91573	0.120033	-0.211123	0.0496727	0.60657	1.7527
1.06	0.00490161	0.0281923	-0.0206639	1.09532	0.959554	-0.239868	0.425718	-0.0304384	-0.112106	0.238523	0.169198	-0.0446758	-0.0134162	-0.186327	0.0863138	-0.151695	0.108204	0.312471	0.0712957	-0.0116331	-0.270823	-0.201358	-0.098734	0.0328923	-0.151923	0.0950996	0.581042	1.9156	0.118687	-0.210954	0.0669842	0.615393	1.75481
1.07	0.00723826	0.025114	-0.0186627	1.108	0.958004	-0.241355	0.416962	-0.0233589	-0.114146	0.191268	0.180823	-0.00181184	-0.013423	-0.21048	0.0850605	-0.154402	0.0970368	0.317456	0.0815562	-0.0116301	-0.269029	-0.186767	-0.0996108	0.0316991	-0.152145	0.0791404	0.57858	1.91439	0.117209	-0.21133	0.0848151	0.624202	1.75731
1.08	0.00928408	0.0221606	-0.0167237	1.12077	0.956322	-0.242747	0.40914	-0.0161436	-0.114791	0.149607	0.191654	0.0327843	-0.0134299	-0.233064	0.0833189	-0.158647	0.0884374	0.322773	0.0934339	-0.0116272	-0.266801	-0.17246	-0.100303	0.0303243	-0.151997	0.0627258	0.576249	1.91239	0.115696	-0.212158	0.102938	0.632843	1.76027
1.09	0.0110004	0.0193037	-0.0148452	1.13365	0.954531	-0.244047	0.402665	-0.00896997	-0.11475	0.114662	0.201716	0.0589489	-0.0134367	-0.253758	0.0810077	-0.164578	0.0828662	0.328371	0.10704	-0.0116242	-0.264159	-0.158405	-0.100761	0.0287627	-0.151495	0.0457973	0.574021	1.90994	0.114233	-0.213303	0.121082	0.641152	1.7637
1.1	0.012383	0.0164974	-0.0130458	1.14661	0.952659	-0.245263	0.397854	-0.00200628	-0.114908	0.0874104	0.210956	0.077262	-0.0134435	-0.272349	0.0780509	-0.172247	0.0806779	0.334144	0.122321	-0.0116213	-0.261144	-0.144524	-0.100922	0.0270097	-0.150695	0.0283567	0.571893	1.9074	0.112874	-0.214598	0.138946	0.648963	1.76754
1.11	0.0134496	0.0136671	-0.0113641	1.15967	0.950731	-0.246405	0.394913	0.00462851	-0.116124	0.0685692	0.219149	0.0887868	-0.0134503	-0.288725	0.0743674	-0.181595	0.0821002	0.339923	0.139045	-0.0116184	-0.257804	-0.130696	-0.100713	0.0250594	-0.149697	0.0104841	0.569879	1.90509	0.111629	-0.215854	0.156211	0.656125	1.77172
1.12	0.0142225	0.0107062	-0.00985703	1.17284	0.948767	-0.247483	0.393929	0.0108939	-0.119009	0.0584863	0.225811	0.0947215	-0.0134571	-0.302864	0.0698664	-0.192444	0.0872267	0.345473	0.156796	-0.0116154	-0.254159	-0.116754	-0.10006	0.0229039	-0.148631	-0.00765049	0.568005	1.90325	0.110456	-0.216878	0.172555	0.662506	1.77613
1.13	0.014712	0.00748348	-0.00859506	1.18613	0.946781	-0.248506	0.394871	0.0168385	-0.123738	0.0570877	0.2302	0.0960664	-0.013464	-0.314802	0.0644537	-0.204475	0.096026	0.350469	0.174951	-0.0116125	-0.250199	-0.102506	-0.0988938	0.0205341	-0.147647	-0.025784	0.566289	1.90202	0.109261	-0.217481	0.18766	0.668003	1.78063
1.14	0.0149166	0.00384673	-0.00765765	1.19956	0.944814	-0.249469	0.397614	0.0225889	-0.12997	0.0638922	0.231406	0.0934034	-0.0134708	-0.324606	0.0580476	-0.217223	0.108372	0.35448	0.192676	-0.0116096	-0.245864	-0.0877674	-0.0971643	0.0179438	-0.146899	-0.0435698	0.564723	1.90142	0.107907	-0.217498	0.201224	0.672544	1.78511
1.15	0.0148157	-0.000339887	-0.00712772	1.21315	0.94289	-0.250368	0.401953	0.0283345	-0.136892	0.0780815	0.228538	0.0868482	-0.0134776	-0.332345	0.050582	-0.230119	0.124101	0.356966	0.208983	-0.0116066	-0.241075	-0.0723723	-0.0948379	0.0151337	-0.146527	-0.0606166	0.563273	1.90136	0.106236	-0.216798	0.212981	0.676083	1.78944
1.16	0.014385	-0.00518811	-0.00708486	1.22691	0.941036	-0.251199	0.407634	0.0342952	-0.143394	0.098605	0.220989	0.0761838	-0.0134844	-0.338049	0.0420105	-0.242564	0.14309	0.357294	0.222833	-0.0116037	-0.23575	-0.0562001	-0.0919048	0.012117	-0.146644	-0.0765368	0.561873	1.90166	0.104089	-0.21529	0.222714	0.6786	1.79351
1.17	0.0136094	-0.01077	-0.00759775	1.24086	0.939276	-0.25195	0.414386	0.0406822	-0.148336	0.124316	0.208679	0.0611298	-0.0134912	-0.341681	0.0323071	-0.254013	0.16533	0.35475	0.233242	-0.0116008	-0.229831	-0.0391921	-0.0883828	0.00892705	-0.14732	-0.0909955	0.56043	1.90213	0.101327	-0.212927	0.230261	0.680095	1.7972
1.18	0.0124933	-0.017107	-0.00871485	1.25499	0.937637	-0.252611	0.421935	0.0476585	-0.150813	0.154099	0.192235	0.0416433	-0.013498	-0.343108	0.0214664	-0.264028	0.190969	0.348557	0.239353	-0.0115978	-0.223305	-0.0213615	-0.0843244	0.00562446	-0.148581	-0.103748	0.558839	1.90257	0.0978464	-0.209698	0.235503	0.680601	1.80043
1.19	0.0110669	-0.0241664	-0.0104541	1.2693	0.936149	-0.253172	0.430008	0.0553098	-0.150357	0.186941	0.173001	0.0181355	-0.0135049	-0.342103	0.00950437	-0.272302	0.220326	0.337877	0.240462	-0.0115949	-0.216218	-0.00279491	-0.0798236	0.00230103	-0.150406	-0.114666	0.556993	1.90286	0.0935836	-0.205628	0.238355	0.680181	1.80314
1.2	0.00938196	-0.0318643	-0.0127933	1.28375	0.934833	-0.253626	0.438311	0.0636355	-0.146998	0.221944	0.15289	-0.00846265	-0.0135117	-0.338357	-0.00354343	-0.278655	0.253841	0.321837	0.236038	-0.011592	-0.208671	0.016355	-0.0750185	-0.000921115	-0.152733	-0.123738	0.554793	1.90294	0.0885179	-0.200766	0.238752	0.678935	1.80529
1.21	0.00750061	-0.0400688	-0.0156671	1.29831	0.933716	-0.25397	0.44651	0.0725617	-0.141201	0.258281	0.134072	-0.0368035	-0.0135185	-0.331511	-0.0176265	-0.283018	0.291999	0.299584	0.225738	-0.011589	-0.200814	0.0358873	-0.0700883	-0.00389684	-0.155463	-0.131067	0.552167	1.90285	0.0826706	-0.195186	0.236642	0.676995	1.80686
1.22	0.00550379	-0.0486291	-0.0189691	1.31294	0.932819	-0.254202	0.454214	0.0819656	-0.133704	0.295117	0.118609	-0.0653316	-0.0135253	-0.321198	-0.0326754	-0.285408	0.335218	0.270372	0.209427	-0.0115861	-0.192812	0.0555618	-0.0652426	-0.00647034	-0.158469	-0.136837	0.549069	1.90274	0.076103	-0.18898	0.231993	0.674512	1.8079
1.23	0.00347107	-0.0573894	-0.0225576	1.3276	0.93216	-0.254324	0.460976	0.0917037	-0.125337	0.33156	0.10812	-0.0925216	-0.0135321	-0.3071	-0.048591	-0.285886	0.383726	0.233697	0.187212	-0.0115832	-0.184829	0.0751104	-0.0607007	-0.00849113	-0.161608	-0.141279	0.545493	1.90278	0.0689145	-0.182261	0.22481	0.671643	1.8085
